<?xml version="1.0" encoding="UTF-8"?>
<svg viewBox="0 0 38 24" xmlns="http://www.w3.org/2000/svg">
  <g transform="translate(1 1)" fill="none" fill-rule="evenodd">
    <path fill="#FF6602" fill-rule="nonzero" d="M0 0h36v22H0z"/>
    <path d="M9 16.111v-2.967c2.562-.003 4.638-1.998 4.641-4.46V4.554h3.086v4.128c0 4.095-3.466 7.428-7.727 7.428" fill-opacity=".7" fill="#FFF"/>
    <path d="M10.568 1.5A1.49 1.49 0 0 0 9.091 0a1.49 1.49 0 0 0-1.477 1.5v7.402L3.01.786A1.547 1.547 0 0 0 1.697.001 1.553 1.553 0 0 0 .34.717a1.469 1.469 0 0 0-.041 1.5l7.371 12.994c.27.486.79.788 1.356.787l.002.002.038-.002.024.002c.036 0 .07-.008.105-.01.016-.003.032-.003.048-.005a1.474 1.474 0 0 0 1.24-1.007 1.485 1.485 0 0 0 .083-.467l.001-.012V1.501z" fill="#FFF" mask="url(#mask-4)" transform="translate(13.432 3)"/>
    <rect stroke="#E1E1E1" x="-.5" y="-.5" width="37" height="23" rx="2"/>
  </g>
</svg>