<?xml version="1.0" encoding="UTF-8"?>
<svg xmlns="http://www.w3.org/2000/svg" height="300" width="300" xml:space="preserve" y="0" x="0" id="Capa_1" version="1.1"><style id="style10" type="text/css">.st2{fill:#fff}.st4{fill:#1a5da5}.st5{fill:#9e1c7e}</style><g transform="matrix(14.1243 0 0 14.1243 -118.22 -51.554)" id="g56"><g id="g54"><circle id="circle12" r="10.62" cy="14.27" cx="18.99" fill-rule="evenodd" clip-rule="evenodd" fill="#fff"/><g id="g52"><circle id="circle14" r="10.1" cy="14.27" cx="18.99" fill-rule="evenodd" clip-rule="evenodd" fill="#f9da10"/><g id="g50"><path id="path16" d="M27.65 12.59a.355.355 0 00-.1-.02c-.03 0-.05 0-.08.01l-3.24.83-1.54-5.68a.33.33 0 00-.31-.24c-.03 0-.05 0-.08.01l-9.25 2.42c-.17.04-.27.22-.23.39l1.42 5.63-3.12.83c-.13.04-.23.15-.24.29v.05c.01.12.08.22.19.27l9.86 4.32a.317.317 0 00.39-.1l6.49-8.51c.04-.05.07-.12.07-.2 0-.14-.1-.26-.23-.3z" class="st2"/><g id="g20"><path id="polygon18" fill-rule="evenodd" clip-rule="evenodd" fill="#df1d82" d="M14.63 16.17l-3.43.92h.01-.01l9.86 4.32 6.5-8.51h-.02l.01-.01-3.55.91-1.62-5.99-9.25 2.42z"/></g><path id="path22" d="M27.36 10.63s0-.01 0 0l-.04-.14c-.01-.02-.01-.04-.02-.06l-.08-.16c-.06-.12-.13-.23-.21-.33-.08-.09-.16-.18-.26-.26h-.01c-.2-.16-.42-.28-.66-.36-.5-.17-1.1-.17-1.81.01-.53.14-.97.35-1.33.63-.37.29-.62.61-.74.95-.01.02-.01.03-.02.05-.11-.12-.25-.23-.4-.31-.27-.15-.6-.24-.95-.26-.2-.01-.38-.01-.55.01-.16.02-.35.06-.56.11-.4.1-.74.24-1.03.42-.04.02-.07.05-.11.07-.05.02-.09.05-.12.09-.2.15-.36.31-.5.5-.22.3-.36.63-.4.97l-.8-.97a.354.354 0 00-.37-.12l-1.44.37c-.13.03-.23.14-.26.27l-.12.54c-.07-.06-.16-.11-.25-.16-.23-.11-.51-.16-.83-.16-.29-.01-.63.04-1.04.15l-2.07.54c-.19.05-.31.24-.26.43l.74 3.17c.02.1.08.18.17.23.06.03.12.05.19.05.03 0 .06 0 .09-.01l4.41-1.14c.14-.04.25-.16.27-.31l.01-.21.93-.24.13.18c.09.12.24.18.39.14l1.41-.37c.12-.03.22-.12.25-.24 0-.01.01-.02.01-.03.42.09.89.06 1.4-.07.41-.11.76-.27 1.03-.48.08.06.19.08.3.05l.9-.23c.19-.05.31-.24.26-.43 0 0 .22-.18.39-.12.5.18 1.11.17 1.83-.01.52-.14.97-.35 1.32-.63.37-.29.62-.63.76-1 .13-.38.15-.76.05-1.12z" class="st2"/><g id="g28"><path id="path24" d="M27.12 10.71l-.04-.13-.08-.17c-.05-.1-.11-.19-.17-.27-.06-.08-.14-.15-.22-.22-.17-.13-.36-.24-.57-.31-.44-.15-.99-.15-1.63.02-.49.13-.89.32-1.22.57-.32.25-.54.53-.65.82-.11.29-.13.6-.07.92l.09.27.04.12v.01c.18.36.5.62.95.78.21.08.45.11.72.11.28 0 .6-.04.93-.13.48-.12.89-.32 1.21-.57.32-.26.55-.55.66-.87.12-.33.13-.65.05-.95zm-2.52-.19c.22-.06.4-.05.55.02.15.07.26.19.35.35.13.26.16.52.09.79-.07.26-.26.43-.59.52-.41.11-.7-.01-.88-.36-.14-.41-.15-.73-.03-.95.08-.19.26-.31.51-.37z" class="st4"/><path id="path26" d="M20.3 12.29l.16.71.63-.18c-.03.1-.11.25-.2.33-.1.09-.26.17-.4.21-.46.12-.77.01-.94-.32-.15-.42-.17-.75-.05-.97.09-.17.26-.29.52-.36.35-.09.6-.03.76.19l.03.04 1.46-.38-.04-.09c-.12-.24-.3-.43-.54-.56-.23-.13-.51-.2-.82-.22-.18-.01-.35-.01-.5.01-.15.02-.33.05-.53.11-.37.1-.69.22-.95.38-.27.16-.48.35-.65.57-.32.43-.42.91-.3 1.43l.04.17.09.2c.02.04.04.07.06.1l-1.58-1.92-1.52.39-.29 1.27a.992.992 0 00-.51-.65c-.19-.09-.42-.13-.7-.13-.26-.01-.58.04-.96.14l-2.13.55.77 3.29 1.54-.4-.23-.99.67-.17c.65-.17 1.1-.4 1.35-.7l-.33 1.48 1.52-.39.06-.46 1.33-.35.27.38 1.55-.4-.54-.65c.17.15.37.27.62.35.43.14.93.14 1.49-.01.51-.13.91-.36 1.17-.66l.11.25 1.01-.26-.43-1.88zm-3.58 1.73l-.9.23.18-1.26zm-4.42.35l-.17-.64s.32-.08.51-.14c.27-.07.48-.09.59.08.05.08.05.26-.02.35-.08.1-.18.15-.36.21-.13.04-.55.14-.55.14z" class="st4"/></g><g id="g38"><path id="path30" d="M22.88 16.52c.06-.09.13-.17.2-.25.35-.41.67-.84.92-1.31.08-.15.2-.39.26-.55.02-.05.01-.09-.03-.13-.11-.11-.18-.11-.3-.02-.65.52-1.14 1.26-1.37 2.05-.01.04-.03.09-.06.12l-.75.81a.24.24 0 01-.08.06c-.02.01-.06.02-.07.01-.02-.01-.02-.05-.03-.07 0-.01 0-.03.01-.04.04-.16.08-.33.14-.49.06-.16.14-.3.21-.45.02-.04.03-.08-.03-.08-.15-.01-.26.02-.35.17-.04.07-.06.14-.11.2-.25.29-.5.59-.76.87-.16.18-.36.31-.59.38-.07.02-.11 0-.11-.07 0-.06 0-.12.01-.17.06-.29.2-.54.4-.75.09-.09.18-.17.31-.21 0 .03 0 .07-.01.09-.06.09-.14.17-.2.26-.02.02-.02.05-.03.07.03.01.06.03.09.02.07-.02.14-.05.21-.08.16-.09.27-.23.3-.41.02-.13-.05-.21-.18-.21h-.05c-.3.06-.51.26-.73.44-.05.04-.09.11-.13.16-.25.3-.5.59-.76.89-.03.04-.07.07-.12.11 0-.02-.01-.03 0-.04.03-.1.05-.2.09-.3.08-.21.18-.41.27-.61.02-.04.03-.08-.02-.12-.07-.06-.15-.06-.23.01-.07-.1-.17-.08-.25-.02-.08.05-.16.1-.23.16-.34.31-.57.69-.74 1.11-.04.11-.08.23-.06.35.02.16.2.26.33.16.05-.04.1-.07.14-.12.11-.16.22-.32.33-.49.01-.02.01-.05.02-.08.01 0 .02.01.03.01.01.03.01.06.02.09.02.08.03.17.05.24.05.14.15.16.25.06.11-.12.22-.24.32-.37.09-.11.17-.23.25-.34 0 .06 0 .11.01.15.05.28.21.43.51.29.1-.05.19-.11.28-.17.27-.2.49-.46.7-.72.04-.05.08-.1.13-.17-.01.07-.02.13-.03.18-.01.09-.01.19.02.28.05.14.16.21.31.2.12-.01.23-.06.31-.15.16-.18.31-.37.46-.55.04-.05.08-.11.12-.16.03.09.05.18.08.26.09.24.25.31.47.19.09-.04.17-.11.23-.18.39-.43.69-.91 1-1.4.04-.06.02-.09-.04-.14-.02.02-.03.04-.04.05-.23.28-.45.56-.68.83-.15.17-.3.34-.49.47-.09.06-.14.04-.17-.06-.06-.12-.02-.22.04-.32zm.96-1.88c0 .18-.67 1.3-.81 1.35.2-.48.47-.93.81-1.35zm-5.5 3.54c-.01 0-.01-.01-.02-.01 0-.03 0-.06.01-.08.13-.35.32-.66.6-.91.04-.04.1-.06.15-.09l.02.02c-.24.35-.46.74-.76 1.07z" class="st5"/><path id="path32" d="M18.25 17.08c-.03-.04-.05-.1-.09-.13a.178.178 0 00-.1-.04c-.05-.01-.11-.01-.16-.01-.22.01-.43.08-.63.15-.05.02-.11.04-.18.06.01-.03.02-.04.02-.05.13-.21.27-.42.4-.63.06-.1.06-.11-.04-.18.07-.03.12-.05.18-.07.42-.13.84-.26 1.27-.39.11-.03.21-.06.32-.1.02-.01.03-.02.05-.03-.01-.01-.02-.03-.04-.04-.15-.09-.3-.15-.48-.16-.24-.01-.47.03-.7.08-.47.11-.91.29-1.35.49-.1.04-.19.09-.3.14.01-.03.03-.06.04-.1a.53.53 0 00-.11.03c-.12.06-.24.13-.35.2-.09.06-.17.12-.24.19-.07.06-.06.12-.01.19.06.07.14.1.22.08.15-.03.3-.07.44-.12.26-.09.51-.19.77-.29.03-.01.05-.01.08-.02 0 0 0 .01.01.01l-.12.15c-.17.25-.35.5-.51.75-.04.06-.09.11-.16.14-.1.04-.2.09-.29.14-.07.04-.08.1-.03.17.03.03.06.07.09.1.04.04.04.07.02.13-.14.27-.24.55-.23.86 0 .04.01.1.03.12.08.08.18.1.29.1.01-.08.01-.16.03-.23.02-.08.04-.15.07-.22.08-.22.17-.43.25-.64a.4.4 0 01.22-.24c.41-.17.83-.35 1.24-.52a.19.19 0 01.08-.07z" class="st5"/><path id="path34" d="M19.1 16.49c-.01.03 0 .07.02.08.01.01.06.01.08 0 .11-.07.23-.14.34-.22.12-.09.21-.2.26-.35.02-.05.02-.11.03-.17-.04-.06-.08-.12-.13-.16-.08-.06-.17-.03-.2.07-.06.24-.18.45-.35.64-.02.04-.04.07-.05.11z" class="st5"/><path id="path36" d="M21.98 15.75c.01-.01.03-.02.06-.03.11-.07.18-.18.23-.3.03-.07.01-.11-.04-.16s-.11-.04-.15.01c-.06.06-.13.13-.17.2-.03.06-.05.14-.05.2-.02.07.04.1.12.08z" class="st5"/></g><g id="g48"><path id="path40" d="M22.76 16.41c.06-.09.13-.17.2-.25.35-.41.67-.84.92-1.31.08-.15.2-.39.26-.55.02-.05.01-.09-.03-.13-.11-.11-.18-.11-.3-.02-.65.52-1.14 1.26-1.37 2.05-.01.04-.03.09-.06.12l-.75.81a.24.24 0 01-.08.06c-.02.01-.06.02-.07.01-.02-.01-.02-.05-.03-.07 0-.01 0-.03.01-.04.04-.16.08-.33.14-.49.06-.16.14-.3.21-.45.02-.04.03-.08-.03-.08-.15-.01-.26.02-.35.17-.04.07-.06.14-.11.2-.25.29-.5.59-.76.87-.16.18-.36.31-.59.38-.07.02-.11 0-.11-.07 0-.06 0-.12.01-.17.06-.29.2-.54.4-.75.09-.09.18-.17.31-.21 0 .03 0 .07-.01.09-.06.09-.14.17-.2.26-.02.02-.02.05-.03.07.03.01.06.03.09.02.07-.02.14-.05.21-.08.16-.09.27-.23.3-.41.02-.13-.05-.21-.18-.21h-.05c-.3.06-.51.26-.73.44-.05.04-.09.11-.13.16-.25.3-.5.59-.76.89-.03.04-.07.07-.12.11 0-.02-.01-.03 0-.04.03-.1.05-.2.09-.3.08-.21.18-.41.27-.61.02-.04.03-.08-.02-.12-.07-.06-.15-.06-.23.01-.07-.1-.17-.08-.25-.02-.08.05-.16.1-.23.16-.34.31-.57.69-.74 1.11-.04.11-.08.23-.06.35.02.16.2.26.33.16.05-.04.1-.07.14-.12.11-.16.22-.32.33-.49.01-.02.01-.05.02-.08.01 0 .02.01.03.01.01.03.01.06.02.09.02.08.03.17.05.24.05.14.15.16.25.06.11-.12.22-.24.32-.37.09-.11.17-.23.25-.34 0 .06 0 .11.01.15.05.28.21.43.51.29.1-.05.19-.11.28-.17.27-.2.49-.46.7-.72.04-.05.08-.1.13-.17-.01.07-.02.13-.03.18-.01.09-.01.19.02.28.05.14.16.21.31.2.12-.01.23-.06.31-.15.16-.18.31-.37.46-.55.04-.05.08-.11.12-.16.03.09.05.18.08.26.09.24.25.31.47.19.09-.04.17-.11.23-.18.39-.43.69-.91 1-1.4.04-.06.02-.09-.04-.14-.02.02-.03.04-.04.05-.23.28-.45.56-.68.83-.15.17-.3.34-.49.47-.09.06-.14.04-.17-.06-.06-.12-.02-.23.04-.32zm.96-1.88c0 .18-.67 1.3-.81 1.35.2-.48.47-.94.81-1.35zm-5.5 3.54c-.01 0-.01-.01-.02-.01 0-.03 0-.06.01-.08.13-.35.32-.66.6-.91.04-.04.1-.06.15-.09l.02.02c-.25.35-.47.73-.76 1.07z" class="st2"/><path id="path42" d="M18.13 16.97c-.03-.05-.05-.1-.09-.13a.178.178 0 00-.1-.04c-.05-.01-.11-.01-.16-.01-.22.01-.43.08-.63.15-.05.02-.11.04-.18.06.01-.03.02-.04.02-.05.13-.21.27-.42.4-.63.06-.1.06-.11-.04-.18.07-.03.12-.05.18-.07.42-.13.84-.26 1.27-.39.11-.03.21-.06.32-.1.02-.01.03-.02.05-.03-.01-.01-.02-.03-.04-.04-.15-.09-.3-.15-.48-.16-.24-.01-.47.03-.7.08-.47.11-.91.29-1.35.49-.1.04-.19.09-.3.14.01-.03.03-.06.04-.1a.53.53 0 00-.11.03c-.12.06-.24.13-.35.2-.09.06-.17.12-.24.19-.07.06-.06.12-.01.19.06.07.14.1.22.08.15-.03.3-.07.44-.12.26-.09.51-.19.77-.29.03-.01.05-.01.08-.02 0 0 0 .01.01.01l-.12.15c-.17.25-.35.5-.51.75-.04.06-.09.11-.16.14-.1.04-.2.09-.29.14-.07.04-.08.1-.03.17.03.03.06.07.09.1.04.04.04.07.02.13-.14.27-.24.55-.23.86 0 .04.01.1.03.12.08.08.18.1.29.1.01-.08.01-.16.03-.23.02-.08.04-.15.07-.22.08-.22.17-.43.25-.64a.4.4 0 01.22-.24c.41-.17.83-.35 1.24-.52a.19.19 0 01.08-.07z" class="st2"/><path id="path44" d="M18.98 16.37c-.01.03 0 .07.02.08.01.01.06.01.08 0 .11-.07.23-.14.34-.22.12-.09.21-.2.26-.35.02-.05.02-.11.03-.17-.04-.06-.08-.12-.13-.16-.08-.06-.17-.03-.2.07-.06.24-.18.45-.35.64-.02.05-.04.08-.05.11z" class="st2"/><path id="path46" d="M21.86 15.64c.01-.01.03-.02.06-.03.11-.07.18-.18.23-.3.03-.07.01-.11-.04-.16s-.11-.04-.15.01c-.06.06-.13.13-.17.2-.03.06-.05.14-.05.2-.02.07.04.1.12.08z" class="st2"/></g></g></g></g></g></svg>