<?xml version="1.0" encoding="UTF-8"?>
<svg xmlns="http://www.w3.org/2000/svg" height="300" width="873.008" xml:space="preserve" y="0" x="0" id="Capa_1" version="1.1"><style id="style10" type="text/css">.st0{fill:#fcfcfc}.st1{fill:#252552}.st2{fill:#e41f21}</style><g transform="matrix(29.60186 0 0 29.60186 -152.154 -267.232)" id="g44"><g id="g42"><path id="path12" d="M18.6 17.16c.16-.36.32-.71.47-1.06.03-.06.06-.09.12-.09.23 0 .47 0 .7.02.15.01.19.13.14.26-.09.22-.17.44-.28.66-.09.17-.27.21-.45.22-.23.01-.45 0-.7-.01z" class="st0"/><path id="path14" d="M12.53 17.08c.16-.37.31-.71.46-1.05.03-.07.09-.09.16-.09.2 0 .41 0 .61.01.16.01.24.1.19.25-.09.23-.18.46-.29.69-.08.16-.26.2-.43.2-.22.01-.43 0-.7-.01z" class="st0"/><path id="path16" d="M23.88 16.08c-.15.37-.29.72-.44 1.07-.02.05-.06.09-.13.08-.23-.01-.46 0-.69-.01-.19-.01-.2-.15-.16-.27.09-.23.19-.46.32-.67.09-.16.27-.2.46-.21.21 0 .41 0 .64.01z" class="st0"/><path id="path18" d="M8.9 17.04c-.63-.01-.65-.04-.4-.58.24-.51.58-.68 1.15-.56.13.03.12.08.08.17-.12.29-.24.57-.36.86-.11.23-.34.06-.47.11z" class="st0"/><path id="path20" d="M24.91 9.05c-.77.23-1.42.64-1.92 1.23-.94 1.09-.34 2.62 1.1 2.88.95.17 1.79-.07 2.58-.58.08-.05.18-.2.27-.1.09.09-.07.18-.14.25-.9 1.01-2.07 1.57-3.42 1.79-.73.12-1.45.08-2.18-.11-1.36-.35-1.98-1.64-1.33-2.86.59-1.11 1.59-1.76 2.77-2.18.73-.26 1.49-.4 2.27-.32z" class="st1"/><path id="path22" d="M24.66 12.65c-.28 0-.54-.04-.79-.15-.66-.29-.9-.9-.6-1.54.51-1.09 2.18-1.77 3.33-1.31.7.28 1.01.9.56 1.66-.53.92-1.43 1.29-2.5 1.34z" class="st2"/><path id="path24" d="M18.5 16.04c.22-.19.11-.45.26-.65.06-.08.11-.12.2-.12.96.01 1.91.02 2.87.04.1 0 .2.03.3.06.42.12.53.33.37.72-.19.46-.35.94-.61 1.37-.24.4-.68.6-1.18.6-.38 0-.76 0-1.14-.01-.15 0-.21.04-.27.17-.11.27-.23.53-.36.8-.05.1-.1.11-.18.11-.29 0-.58-.01-.86-.01-.12 0-.16-.02-.11-.15.18-.55.47-1.06.69-1.59.13-.31.27-.62.4-.93.14-.32.12-.35-.23-.38a.752.752 0 00-.15-.03zm1.24 1.2c.25 0 .47.01.7.01.18-.01.36-.04.45-.22.1-.21.19-.44.28-.66.05-.13.02-.24-.14-.26-.23-.02-.46-.01-.7-.02-.06 0-.09.03-.12.09-.15.35-.31.7-.47 1.06z" class="st1"/><path id="path26" d="M14.11 17.97c-.29.03-.6-.1-.79.05-.17.13-.24.41-.31.64-.09.3-.26.44-.6.38-.17-.03-.35-.02-.53-.01-.21.01-.21-.09-.15-.23.31-.7.61-1.4.93-2.1.08-.17.09-.35.2-.51.08-.13-.08-.19-.21-.19-.16-.01-.23-.01-.15-.21.22-.59.21-.6.84-.59l2.4.03c.05 0 .09 0 .14.01.61.1.79.48.44 1-.16.24-.25.51-.34.78-.2.59-.65.95-1.31.96-.2 0-.4-.01-.56-.01zm-.45-.81c.27 0 .48.01.7.01.17-.01.35-.04.43-.2.11-.22.2-.45.29-.69.06-.15-.02-.24-.19-.25-.2-.01-.41-.01-.61-.01-.07 0-.13.02-.16.09-.14.34-.29.68-.46 1.05z" class="st2"/><path id="path28" d="M29.95 15.32c-.41.27-.41.31-.08.64.42.42.37.61-.1.99-.3.24-.66.38-.98.57-.11.07-.16.11-.08.24.15.24.07.46-.13.64-.69.59-1.48.86-2.41.73-.11-.02-.13-.05-.08-.13.08-.17.17-.33.2-.52.02-.1.09-.16.21-.15.19.01.37.01.56.01.12 0 .25-.02.3-.15.05-.12-.03-.2-.11-.28-.25-.25-.51-.49-.75-.74-.34-.35-.28-.75.15-1 .85-.49 1.73-.91 2.6-1.36.09-.05.16-.06.24.02.14.17.3.33.46.49zm-1.56.7c-.13 0-.22.03-.51.18-.59.32-.61.4-.14.85l.02.02c.06.08.12.09.21.04.26-.15.53-.29.8-.44.09-.05.17-.12.15-.23-.02-.13-.37-.41-.53-.42z" class="st1"/><path id="path30" d="M24.31 18.1c-.45-.01-.89-.01-1.34-.02-.68-.02-.9-.37-.62-.96.16-.33.32-.66.43-1 .12-.35.41-.49.71-.63.32-.14.66-.18 1.01-.17.62.01 1.25.03 1.87.04.2 0 .18.06.12.2-.21.45-.41.91-.6 1.37-.12.28-.1.33.21.39.13.03.15.07.1.17 0 .01-.01.02-.01.02-.24.62-.24.62-.92.61-.33 0-.64-.01-.96-.02 0 .01 0 0 0 0zm.71-1.95c-.23 0-.44-.01-.64-.01-.18 0-.37.05-.46.21-.13.21-.23.44-.32.67-.05.12-.03.26.16.27.23.01.46.01.69.01.07 0 .1-.03.13-.08.15-.35.29-.7.44-1.07z" class="st1"/><path id="path32" d="M10.2 17.92c-.46-.01-.91-.01-1.37-.02-.61-.02-.81-.3-.61-.85.15-.41.32-.81.53-1.2.25-.48.72-.65 1.24-.69.76-.06 1.52.02 2.29.02.17 0 .17.07.1.23-.23.49-.43.99-.64 1.48-.08.18.07.22.2.23.2.02.21.09.13.25-.26.57-.25.57-.9.57-.17 0-.33-.01-.5-.01-.15-.01-.31-.01-.47-.01zm-.16-.8c.13-.06.36.12.46-.12.13-.28.24-.57.36-.86.04-.08.05-.14-.08-.17-.57-.12-.91.05-1.15.56-.25.54-.22.58.41.59z" class="st2"/><path id="path34" d="M31.73 18.31c-.29 0-.5-.07-.68-.23-.27-.24-.54-.48-.78-.75-.28-.32-.19-.62.18-.86.61-.38 1.26-.68 1.91-.98.56-.26 1-.18 1.45.22.21.2.43.39.63.6.27.27.25.53-.03.78-.22.2-.49.32-.75.45-.52.27-1.03.57-1.61.73-.13.03-.25.03-.32.04zm.41-.93c.36-.09.69-.3 1.04-.49.04-.02.04-.07.03-.12-.06-.28-.57-.56-.83-.45-.25.1-.48.24-.71.36-.09.05-.15.12-.14.21-.01.14.42.48.61.49z" class="st1"/><path id="path36" d="M5.14 17.86c.16-.37.3-.72.45-1.06.22-.51.45-1.01.67-1.51.06-.13.11-.19.28-.19.67.02 1.34.03 2.01.03.19 0 .21.05.14.21-.27.59-.27.6-.95.59-.47 0-.58.07-.76.47-.19.42-.37.85-.54 1.28-.06.15-.14.21-.3.2-.33-.02-.65-.02-1-.02z" class="st2"/><path id="path38" d="M17.79 15.26c.15 0 .3 0 .45.01.17.01.17.09.1.2-.28.45-.45.95-.67 1.43-.09.2-.01.29.18.31.18.02.18.07.12.22-.26.64-.25.64-.96.59-.66-.05-.87-.36-.62-.93.22-.51.47-1.02.67-1.54.09-.24.23-.33.49-.29.07 0 .16-.01.24 0z" class="st2"/><path id="path40" d="M18.12 14.15c.08 0 .13-.02.17-.01.15.05.34.04.39.23.04.17-.05.31-.19.41-.22.15-.44.28-.73.25-.18-.02-.36-.06-.42-.25-.07-.21.06-.38.22-.47.17-.1.36-.24.56-.16z" class="st2"/></g></g></svg>